<svg width="118" height="16" viewBox="0 0 118 16" fill="none" xmlns="http://www.w3.org/2000/svg">
<path d="M115.44 0.574299V0.328145H116.374V0.574299H116.034V1.39481H115.695V0.574299H115.44ZM116.629 0.328145L117.224 0.820453L117.818 0.246094V1.39481H117.478V0.984555L117.224 1.23071L116.969 0.984555V1.47686H116.629V0.328145Z" fill="#1E1E1E"/>
<path d="M67.8707 0.0820312C63.3687 0.0820312 59.7161 3.61024 59.7161 7.95895C59.7161 12.3077 63.3687 15.8359 67.8707 15.8359C72.3728 15.8359 76.0254 12.3077 76.0254 7.95895C76.0254 3.61024 72.3728 0.0820312 67.8707 0.0820312ZM67.8707 13.2102C65.0676 13.2102 62.859 10.9128 62.859 8.04101C62.859 5.16921 65.0676 2.87177 67.8707 2.87177C70.6739 2.87177 72.8825 5.16921 72.8825 8.04101C72.8825 10.9128 70.6739 13.2102 67.8707 13.2102Z" fill="#1E1E1E"/>
<path d="M44.3411 0.328125V15.6717H54.1946V12.7179H47.3991V0.328125H44.3411Z" fill="#1E1E1E"/>
<path d="M103.208 15.6717H106.351V9.92813H112.467V7.22043H106.351V2.95377H112.891V0.328125H103.208V15.6717Z" fill="#1E1E1E"/>
<path d="M30.2402 0L37.8852 15.6718H34.4025L30.1553 6.97436L25.993 15.6718H22.5103L30.1553 0H30.2402Z" fill="#1E1E1E"/>
<path d="M89.3617 15.9999H89.022C85.4543 15.9999 82.5662 13.2102 82.5662 9.76402V0.328125H85.6242V9.84607C85.6242 11.6512 87.1532 13.0461 88.937 13.0461H89.2768C91.1456 13.0461 92.5896 11.5692 92.5896 9.84607V0.328125H95.6476V9.84607C95.8175 13.2102 92.9294 15.9999 89.3617 15.9999Z" fill="#1E1E1E"/>
<path d="M15.9696 0H16.0545V15.6718H12.9116V7.46667L8.06974 12.8H7.98479L3.14295 7.46667V15.6718H0V0H0.0849446L7.98479 8.45128L15.9696 0Z" fill="#1E1E1E"/>
</svg>
